<svg width="82" height="47" fill="none" xmlns="http://www.w3.org/2000/svg"><defs><linearGradient id="a" x1="0" y1="0" x2="34.361" y2="38.649" gradientUnits="userSpaceOnUse"><stop stop-color="#17B9FF"/><stop offset="1" stop-color="#1769FF"/></linearGradient><linearGradient id="b" x1="20" y1="26" x2="35.782" y2="55.015" gradientUnits="userSpaceOnUse"><stop stop-color="#17B9FF"/><stop offset="1" stop-color="#1769FF"/></linearGradient></defs><path d="M16.214 31.385c0 .266-.74.485-2.22.654a45.51 45.51 0 01-4.474.219c-1.48 0-2.426-.06-2.838-.182-.412-.146-.619-.376-.619-.691V8.755c0-.533.704-1.054 2.11-1.564 1.407-.533 2.984-.8 4.73-.8 1.552 0 2.571.327 3.056.982.17.243.255.485.255.728v23.284zm21.151.618c-.97.218-1.965.364-2.983.437a30.31 30.31 0 01-2.947.145c-.946 0-1.686-.024-2.22-.072-.509-.049-1.188-.17-2.037-.364a10.95 10.95 0 01-2.328-.8c-.704-.34-1.456-.837-2.256-1.492a9.117 9.117 0 01-1.965-2.329c-1.236-2.086-1.855-4.778-1.855-8.076 0-2.207.34-4.16 1.019-5.858.703-1.697 1.54-3.007 2.51-3.929a12.197 12.197 0 013.383-2.219c2.038-.922 4.087-1.383 6.149-1.383 2.959 0 5.081.243 6.367.728a4.362 4.362 0 011.564 1.019c.46.46.691 1.128.691 2 0 .874-.218 1.977-.655 3.311-.412 1.334-1.018 2.001-1.819 2.001-.242 0-1.14-.194-2.692-.582-1.552-.388-2.607-.582-3.165-.582-.849 0-1.577.473-2.183 1.419-.582.946-.873 2.292-.873 4.038 0 1.747.255 3.105.764 4.075.534.97 1.225 1.455 2.074 1.455.606 0 1.697-.242 3.274-.727 1.6-.51 2.535-.764 2.801-.764.752 0 1.334.69 1.747 2.073.436 1.383.655 2.498.655 3.347 0 .85-.267 1.528-.8 2.038-.51.485-1.25.849-2.22 1.091zm24.093.255H46.033c-1.189 0-1.99-.085-2.401-.255-.413-.17-.619-.436-.619-.8V8.173c0-.63.279-1.079.837-1.346.582-.266 1.613-.4 3.092-.4h14.625c.51 0 .764.85.764 2.547 0 1.674-.109 2.959-.327 3.856-.218.873-.51 1.31-.873 1.31-1.577 0-4.233-.158-7.968-.473v2.438c3.59-.146 5.93-.219 7.022-.219.655 0 .982.764.982 2.292 0 1.528-.133 2.693-.4 3.493-.243.776-.582 1.164-1.019 1.164l-6.585-.145v2.328c4.22-.315 7.131-.473 8.732-.473.51 0 .764.849.764 2.547 0 1.698-.11 2.983-.328 3.856-.218.873-.509 1.31-.873 1.31z" fill="#fff"/><path fill-rule="evenodd" clip-rule="evenodd" d="M14.686 38.064a51.765 51.765 0 01-5.166.258c-.806 0-1.555-.017-2.207-.058-.518-.034-1.44-.106-2.342-.37a6.116 6.116 0 01-.307-.1c-.792-.28-1.959-.832-2.965-1.957A6.656 6.656 0 010 31.385V8.755c0-3.152 2.074-4.99 2.98-5.661 1.027-.762 2.17-1.254 3.087-1.589C8.25.685 10.554.327 12.903.327c1.774 0 5.28.262 7.623 3.05.85-.56 1.745-1.049 2.684-1.466C25.958.671 28.849 0 31.835 0c3.04 0 6.114.217 8.501 1.116.255.096.505.2.748.315a8.354 8.354 0 01.24-.116c1.894-.868 4.12-.951 5.618-.951h14.625A6.5 6.5 0 0166.41 2.53c.934 1.038 1.346 2.148 1.54 2.792.387 1.293.446 2.648.446 3.652 0 1.834-.11 3.689-.5 5.29a9.86 9.86 0 01-.776 2.137c.093.677.112 1.291.112 1.777 0 .923-.038 1.9-.16 2.873a7.39 7.39 0 011.205 2.388c.388 1.294.446 2.649.446 3.653 0 1.838-.106 3.72-.508 5.327-.175.7-.508 1.808-1.22 2.875-.735 1.103-2.522 3.027-5.536 3.027H46.033c-.718 0-1.445-.024-2.132-.097-.591-.063-1.573-.2-2.578-.614a7.601 7.601 0 01-.674-.316 13.052 13.052 0 01-1.953.625c-1.248.28-2.517.467-3.802.563a36.35 36.35 0 01-3.46.167c-1.013 0-1.964-.025-2.768-.098l-.025-.002c-.89-.085-1.86-.271-2.814-.49a17.007 17.007 0 01-3.613-1.25 15.394 15.394 0 01-1.774-1.014c-.427.427-.82.707-1.04.851a7.61 7.61 0 01-2.025.918c-.885.261-1.86.404-2.69.5zm1.357-6.468c-.297.173-.98.32-2.048.444-1.48.145-2.971.218-4.475.218-1.48 0-2.426-.06-2.838-.182-.412-.146-.618-.376-.618-.691V8.755c0-.533.703-1.054 2.11-1.564 1.406-.533 2.983-.8 4.73-.8 1.551 0 2.57.327 3.055.982.065.093.118.186.158.279.064.15.097.3.097.449v23.284c0 .074-.057.144-.171.21zm6.234-2.02c.104.096.21.19.317.28.8.656 1.552 1.153 2.256 1.492.703.34 1.48.607 2.328.8.85.195 1.528.316 2.037.364.534.049 1.274.073 2.22.073.97 0 1.952-.048 2.947-.145a20.201 20.201 0 002.983-.437c.765-.191 1.387-.458 1.866-.8.128-.092.246-.189.353-.291.534-.51.8-1.189.8-2.038 0-.848-.218-1.964-.654-3.347-.413-1.382-.995-2.073-1.747-2.073-.145 0-.49.076-1.033.227-.452.127-1.041.305-1.768.537-1.577.485-2.668.727-3.274.727-.85 0-1.54-.485-2.074-1.455-.51-.97-.764-2.328-.764-4.075 0-1.746.291-3.092.873-4.038.606-.946 1.334-1.419 2.183-1.419.558 0 1.613.194 3.165.582.678.17 1.23.302 1.659.398.552.123.897.184 1.033.184.8 0 1.407-.667 1.82-2 .436-1.335.654-2.438.654-3.311 0-.666-.134-1.211-.401-1.637a2.07 2.07 0 00-.29-.364c-.46-.461-.982-.8-1.564-1.019a7.716 7.716 0 00-1.07-.307c-1.283-.28-3.048-.42-5.297-.42-2.062 0-4.111.46-6.149 1.382a12.197 12.197 0 00-3.409 2.244c-.959.92-1.787 2.222-2.484 3.904-.68 1.698-1.019 3.65-1.019 5.858 0 3.298.619 5.99 1.856 8.076a9.158 9.158 0 001.647 2.048zm20.736 1.627c0 .364.206.63.619.8.387.16 1.116.244 2.188.254h15.638c.364 0 .655-.436.873-1.309.166-.662.269-1.562.309-2.699.012-.362.019-.747.019-1.157 0-1.698-.255-2.547-.764-2.547a51.215 51.215 0 00-2.186.059c-.156.007-.316.014-.482.023a242.84 242.84 0 00-6.064.391V22.69l6.585.145c.437 0 .776-.388 1.019-1.164.133-.399.233-.888.3-1.468.026-.232.048-.48.064-.742a19.961 19.961 0 00.036-1.283c0-.294-.012-.56-.036-.797-.102-.996-.417-1.495-.946-1.495-.253 0-.572.004-.958.012a332.36 332.36 0 00-6.064.207v-2.438c2.508.212 4.53.353 6.064.422a49.706 49.706 0 001.904.051c.364 0 .655-.437.873-1.31.163-.671.266-1.56.307-2.667.014-.372.02-.768.02-1.189 0-1.698-.254-2.547-.764-2.547H46.942c-.362 0-.698.008-1.007.024-.95.05-1.646.175-2.085.377-.558.266-.837.715-.837 1.346v23.029z" fill="url(#a)"/><path d="M29.08 26.501c1.15-.349 2.385-.713 3.58-.352.84.142 1.574.62 2.142 1.24 1.18 1.127 1.915 2.79 1.658 4.433-.13.522.115 1.131.63 1.332.47.063.983.116 1.426-.096.674-.314 1.4-.52 2.138-.605.64-.042 1.265.162 1.865.362.827-.72 2.192-.63 2.904.21.538.493.626 1.243.835 1.9.11.426.663.511.992.307.477-.526.55-1.268.913-1.859.59-1.012 1.62-1.803 2.789-1.992.727-.156 1.56.06 2.084.6.394.546.551 1.29.362 1.943-.08.502-.358.943-.478 1.432-.03.825-.02 1.665.143 2.477.79-1.594 1.614-3.184 2.666-4.624.578-.701.402-1.71.91-2.449.483-.844 1.478-1.37 2.447-1.261 1.446.167 2.556 1.51 2.693 2.92a1.902 1.902 0 011.887-.381c.512.14.853.578 1.165.978 1.056-.716 2.444-1.253 3.694-.727 1.144.478 1.807 1.694 1.94 2.885.986-1.476 2.48-2.73 4.265-3.05 1.255-.334 2.717-.004 3.594.989.522.603 1.128 1.14 1.564 1.816.375.59.369 1.316.572 1.965.345.452.695.997.532 1.594-.063.638-.544 1.091-1.028 1.45-.734 2.285-2.132 4.468-4.22 5.728-1.785 1.077-4.247.82-5.737-.651a6.599 6.599 0 01-3.92 1.523c-1.18-.053-2.463-.376-3.219-1.355-.561-.624-.682-1.477-.838-2.268a290.02 290.02 0 00-1.315 2.986c-.2.49-.701.829-1.232.811-.592.045-1.085-.348-1.646-.449-.903.097-1.768.517-2.694.428-.823-.092-1.675-.278-2.326-.824-2.341 1.25-5.474 1.44-7.682-.19-1.05.805-2.333 1.326-3.666 1.323-.93-.084-1.888-.327-2.6-.964-1.117.657-2.46 1.176-3.764.826-1.356-.213-2.449-1.328-2.845-2.612-1.504 1.828-3.903 2.79-6.248 2.689-1.216-.127-2.468-.433-3.436-1.221-1.888-1.48-2.671-3.994-2.567-6.324a14.113 14.113 0 012.298-6.76c.846-1.272 1.792-2.493 2.91-3.54 1.178-1.005 2.388-2.055 3.864-2.593z" fill="url(#b)"/><path d="M30.767 27.77c.924-.228 1.998-.218 2.782.389.711.593 1.332 1.345 1.61 2.241.26.835.054 1.735-.321 2.5a22.304 22.304 0 00-.969 2.432c-.093.313-.452.532-.77.411-.79-.284-1.257-1.156-1.215-1.972.056-1.31.85-2.431 1.062-3.706.037-.259.038-.605-.237-.737-.447-.117-.896.113-1.295.293-1.271.658-2.364 1.614-3.344 2.645-1.618 1.72-2.885 3.823-3.355 6.157-.29 1.433-.43 2.994.15 4.374.3.712.977 1.384 1.805 1.294 1.212-.143 2.155-1.04 2.926-1.916.757-.885 1.358-1.89 1.895-2.92.143-.384.714-.544.983-.197.394.528.41 1.252.262 1.871-.272 1.043-.94 1.934-1.695 2.68-1.442 1.459-3.68 2.065-5.664 1.552-1.03-.26-1.923-.946-2.488-1.84-.985-1.484-1.137-3.363-.84-5.082.515-3 2.229-5.678 4.378-7.78 1.243-1.166 2.636-2.315 4.34-2.69zm27.619 3.27c1.414-.116 2.315 2.05 1.193 2.96-.714.468-1.68-.033-2.025-.734-.456-.78-.078-1.992.831-2.226z" fill="#fff"/><path d="M49.238 34.313c.385-.714 1.069-1.335 1.892-1.46.314-.062.744.05.78.425.085.761-.63 1.322-.572 2.076-.061 1.783.288 3.543.377 5.32a6.404 6.404 0 01-.39 2.585c.715-.611 1.582-1.234 1.776-2.215.64-1.907 1.602-3.691 2.591-5.437.357-.55.626-1.193 1.144-1.614.309-.235.66.055.838.309.518.711.464 1.684.177 2.476-.423 1.081-1.002 2.092-1.53 3.125-.52 1.007-1.112 2.029-1.202 3.184-.008.283-.034.624.193.837.403.138.814-.106 1.136-.33.761-.6 1.418-1.387 1.672-2.34 1.068-2.527 2.43-4.922 3.866-7.255.182-.283.445-.704.845-.552.66.481.734 1.4.715 2.153.912-.856 1.914-1.745 3.168-2.02.896-.18 1.594.675 1.768 1.467.216.77-.196 1.509-.528 2.178-.857 1.724-2.06 3.323-2.437 5.246-.058.437-.073 1.083.42 1.276.465.03.856-.282 1.187-.572.851-.796 1.474-1.798 2.045-2.804.288-.488.309-1.07.5-1.593.52-1.514 1.352-2.954 2.546-4.037.9-.81 2.114-1.39 3.348-1.212.922.142 1.368 1.05 2.011 1.614.758.68.778 1.77.713 2.708.224.055.446.114.668.179v.112c-.103.393-.49.55-.829.688-.474 1.774-1.372 3.472-2.73 4.727-.814.745-1.902 1.32-3.038 1.154-1.192-.133-2.188-.99-2.711-2.04-.866 1.06-2.04 1.941-3.406 2.2-.953.139-2.108.005-2.726-.819-.589-.819-.48-1.913-.212-2.83.527-1.771 1.419-3.41 2.383-4.978.207-.332.38-.686.497-1.06-1.13.492-2.016 1.382-2.85 2.265-1.876 2.01-2.888 4.616-4.006 7.083-.103.244-.304.524-.608.454-.403-.12-.618-.507-.853-.821-1.067.734-2.457 1.187-3.73.748-.55-.178-.948-.639-1.175-1.158-1.428 1.248-3.441 1.737-5.293 1.374-1.036-.187-1.952-.82-2.54-1.685-.982 1.199-2.503 2.192-4.115 1.89-.851-.125-1.525-.79-1.746-1.607-.687.65-1.464 1.24-2.376 1.527-.922.287-2.048.055-2.653-.735-.66-.854-.692-2.02-.488-3.04.362-1.855 1.51-3.427 2.72-4.83 1.06-1.161 2.318-2.294 3.895-2.648.92-.224 1.97.188 2.336 1.097.254-.415.434-.91.833-1.211.354-.229.77.06.935.384.523.934.332 2.09-.119 3.012-.851 1.717-2.02 3.278-2.656 5.1-.168.527-.322 1.106-.172 1.656.122.367.579.229.827.087.862-.513 1.424-1.387 1.96-2.21.316-.438.136-1.012.31-1.5.185-.615.578-1.263 1.22-1.466.354-.088.477.304.58.555.786-1.202 1.587-2.394 2.317-3.63.279-.48.22-1.078.502-1.562zm26.512 1.361a3 3 0 00.438 1.701c.213-.537.37-1.11.361-1.693-.004-.215-.112-.463-.339-.524-.281-.024-.434.281-.46.516zm-36.813 1.83c-1.266 1.525-2.424 3.258-2.759 5.248-.055.478-.143 1.07.258 1.43 1.042-.192 1.64-1.174 2.226-1.96.901-1.343 1.714-2.752 2.33-4.247.24-.632.5-1.292.454-1.98.014-.243-.25-.448-.473-.3-.822.41-1.43 1.136-2.035 1.809zM71.51 41.49c-.053.537-.13 1.144.17 1.627.239.349.728.22 1.03.03.723-.447 1.231-1.158 1.687-1.86.543-.904 1.065-1.836 1.377-2.85-.817-.49-1.474-1.258-1.722-2.19-1.369 1.423-2.25 3.293-2.542 5.243zm-22.565-3.175c-.712 1.148-1.419 2.298-2.18 3.415.218.71.467 1.462 1.017 1.99.21.204.608.357.82.07.311-.432.352-.99.418-1.502.107-1.323.019-2.652-.075-3.973z" fill="#fff"/></svg>